<?xml version="1.0" encoding="UTF-8"?>
<svg xmlns="http://www.w3.org/2000/svg" xmlns:xlink="http://www.w3.org/1999/xlink">
  <defs>
    <!-- Rice Grain Pattern -->
    <pattern id="rice-grain-pattern" x="0" y="0" width="40" height="60" patternUnits="userSpaceOnUse">
      <g opacity="0.1">
        <ellipse cx="10" cy="15" rx="4" ry="8" fill="#FFD700" transform="rotate(15 10 15)"/>
        <ellipse cx="30" cy="30" rx="4" ry="8" fill="#F4E6D9" transform="rotate(-20 30 30)"/>
        <ellipse cx="20" cy="45" rx="4" ry="8" fill="#FFE5B4" transform="rotate(45 20 45)"/>
      </g>
    </pattern>
    
    <!-- Rice Field Waves -->
    <pattern id="rice-field-waves" x="0" y="0" width="200" height="100" patternUnits="userSpaceOnUse">
      <path d="M0 50 Q50 30 100 50 T200 50" stroke="rgba(139, 195, 74, 0.2)" fill="none" stroke-width="2"/>
      <path d="M0 60 Q50 40 100 60 T200 60" stroke="rgba(124, 179, 66, 0.15)" fill="none" stroke-width="2"/>
      <path d="M0 70 Q50 50 100 70 T200 70" stroke="rgba(76, 175, 80, 0.1)" fill="none" stroke-width="2"/>
    </pattern>
    
    <!-- Organic Leaf Pattern -->
    <pattern id="leaf-pattern" x="0" y="0" width="80" height="80" patternUnits="userSpaceOnUse">
      <g opacity="0.08">
        <path d="M20,40 Q30,20 40,40 Q30,50 20,40" fill="#8BC34A"/>
        <path d="M50,20 Q60,10 65,20 Q60,30 50,20" fill="#7CB342" transform="rotate(45 57.5 20)"/>
        <path d="M15,60 Q25,50 30,60 Q25,70 15,60" fill="#689F38" transform="rotate(-30 22.5 60)"/>
      </g>
    </pattern>
    
    <!-- Water Ripple Effect -->
    <pattern id="water-ripple" x="0" y="0" width="100" height="100" patternUnits="userSpaceOnUse">
      <circle cx="50" cy="50" r="20" stroke="rgba(33, 150, 243, 0.1)" fill="none" stroke-width="1">
        <animate attributeName="r" from="10" to="40" dur="3s" repeatCount="indefinite"/>
        <animate attributeName="opacity" from="0.3" to="0" dur="3s" repeatCount="indefinite"/>
      </circle>
      <circle cx="50" cy="50" r="30" stroke="rgba(33, 150, 243, 0.08)" fill="none" stroke-width="1">
        <animate attributeName="r" from="20" to="50" dur="3s" begin="1s" repeatCount="indefinite"/>
        <animate attributeName="opacity" from="0.3" to="0" dur="3s" begin="1s" repeatCount="indefinite"/>
      </circle>
    </pattern>
    
    <!-- Organic Blob Shape -->
    <clipPath id="organic-shape-1">
      <path d="M40,10 Q80,0 90,40 Q100,80 60,90 Q20,100 10,60 Q0,20 40,10">
        <animate attributeName="d" 
          values="M40,10 Q80,0 90,40 Q100,80 60,90 Q20,100 10,60 Q0,20 40,10;
                  M30,20 Q70,0 95,35 Q100,70 70,95 Q30,100 5,70 Q0,30 30,20;
                  M40,10 Q80,0 90,40 Q100,80 60,90 Q20,100 10,60 Q0,20 40,10"
          dur="10s" repeatCount="indefinite"/>
      </path>
    </clipPath>
    
    <!-- Sun Ray Pattern -->
    <pattern id="sun-rays" x="0" y="0" width="200" height="200" patternUnits="userSpaceOnUse">
      <g opacity="0.05">
        <line x1="100" y1="0" x2="100" y2="200" stroke="#FFD700" stroke-width="2" transform="rotate(0 100 100)"/>
        <line x1="100" y1="0" x2="100" y2="200" stroke="#FFD700" stroke-width="2" transform="rotate(30 100 100)"/>
        <line x1="100" y1="0" x2="100" y2="200" stroke="#FFD700" stroke-width="2" transform="rotate(60 100 100)"/>
        <line x1="100" y1="0" x2="100" y2="200" stroke="#FFD700" stroke-width="2" transform="rotate(90 100 100)"/>
        <line x1="100" y1="0" x2="100" y2="200" stroke="#FFD700" stroke-width="2" transform="rotate(120 100 100)"/>
        <line x1="100" y1="0" x2="100" y2="200" stroke="#FFD700" stroke-width="2" transform="rotate(150 100 100)"/>
      </g>
    </pattern>
    
    <!-- Grain Texture -->
    <filter id="grain">
      <feTurbulence type="fractalNoise" baseFrequency="0.9" numOctaves="4" result="noise" seed="5"/>
      <feColorMatrix in="noise" type="saturate" values="0"/>
      <feComponentTransfer>
        <feFuncA type="discrete" tableValues="0 .5 .5 .5 .5 .5 .5 .5 .5 .5 .5 .5 .5 .5 .5 .5 1"/>
      </feComponentTransfer>
      <feBlend mode="multiply"/>
    </filter>
  </defs>
</svg>